HIERARCHY
ROOT root
{
	OFFSET 0.000000 0.000000 0.000000
	CHANNELS 6 Xposition Yposition Zposition Zrotation Yrotation Xrotation
	JOINT lhip
	{
		OFFSET 0.058581 -0.082280 -0.017664
		CHANNELS 3 Zrotation Yrotation Xrotation
		JOINT lknee
		{
			OFFSET 0.043451 -0.386469 0.008037
			CHANNELS 3 Zrotation Yrotation Xrotation
			JOINT lankle
			{
				OFFSET -0.014790 -0.426874 -0.037428
				CHANNELS 3 Zrotation Yrotation Xrotation
				JOINT ltoe
				{
					OFFSET 0.041054 -0.060286 0.122042
					CHANNELS 3 Zrotation Yrotation Xrotation
					End Site
					{
						OFFSET 0.000000 0.000000 0.000000
					}
				}
			}
		}
	}
	JOINT rhip
	{
		OFFSET -0.060310 -0.090513 -0.013543
		CHANNELS 3 Zrotation Yrotation Xrotation
		JOINT rknee
		{
			OFFSET -0.043257 -0.383688 -0.004843
			CHANNELS 3 Zrotation Yrotation Xrotation
			JOINT rankle
			{
				OFFSET 0.019056 -0.420046 -0.034562
				CHANNELS 3 Zrotation Yrotation Xrotation
				JOINT rtoe
				{
					OFFSET -0.034840 -0.062106 0.130323
					CHANNELS 3 Zrotation Yrotation Xrotation
					End Site
					{
						OFFSET 0.000000 0.000000 0.000000
					}
				}
			}
		}
	}
	JOINT lowerback
	{
		OFFSET 0.004439 0.124404 -0.038385
		CHANNELS 3 Zrotation Yrotation Xrotation
		JOINT upperback
		{
			OFFSET 0.004488 0.137956 0.026820
			CHANNELS 3 Zrotation Yrotation Xrotation
			JOINT chest
			{
				OFFSET -0.002265 0.056032 0.002855
				CHANNELS 3 Zrotation Yrotation Xrotation
				JOINT lowerneck
				{
					OFFSET -0.013390 0.211636 -0.033468
					CHANNELS 3 Zrotation Yrotation Xrotation
					JOINT upperneck
					{
						OFFSET 0.010113 0.088937 0.050410
						CHANNELS 3 Zrotation Yrotation Xrotation
						End Site
						{
							OFFSET 0.000000 0.000000 0.000000
						}
					}
				}
				JOINT lclavicle
				{
					OFFSET 0.071702 0.114000 -0.018898
					CHANNELS 3 Zrotation Yrotation Xrotation
					JOINT lshoulder
					{
						OFFSET 0.122921 0.045205 -0.019046
						CHANNELS 3 Zrotation Yrotation Xrotation
						JOINT lelbow
						{
							OFFSET 0.255332 -0.015649 -0.022946
							CHANNELS 3 Zrotation Yrotation Xrotation
							JOINT lwrist
							{
								OFFSET 0.265709 0.012698 -0.007375
								CHANNELS 3 Zrotation Yrotation Xrotation
								End Site
								{
									OFFSET 0.000000 0.000000 0.000000
								}
							}
						}
					}
				}
				JOINT rclavicle
				{
					OFFSET -0.082954 0.112472 -0.023707
					CHANNELS 3 Zrotation Yrotation Xrotation
					JOINT rshoulder
					{
						OFFSET -0.113228 0.046853 -0.008472
						CHANNELS 3 Zrotation Yrotation Xrotation
						JOINT relbow
						{
							OFFSET -0.260127 -0.014369 -0.031269
							CHANNELS 3 Zrotation Yrotation Xrotation
							JOINT rwrist
							{
								OFFSET -0.269108 0.006794 -0.006027
								CHANNELS 3 Zrotation Yrotation Xrotation
								End Site
								{
									OFFSET 0.000000 0.000000 0.000000
								}
							}
						}
					}
				}
			}
		}
	}
}
MOTION
Frames: 10
Frame Time: 0.033333
0.023862 0.294245 1.030075 179.094188 -1.119327 94.851850 1.937154 5.175179 -8.375718 -2.167647 -3.369739 0.185623 1.302330 12.053910 -9.272992 0.000000 -0.000000 0.000000 -3.498249 -2.059502 -13.012333 1.441799 3.379531 6.698576 5.494314 -6.161004 3.715233 0.000000 -0.000000 0.000000 1.545152 1.659179 19.789040 -1.728459 -8.330162 6.396057 2.026118 4.480222 -6.611248 -6.200413 -5.214730 -9.147385 11.729582 9.127450 -0.975073 -15.814072 -46.285321 -3.033087 -25.249326 -54.847934 -9.986850 37.980785 -28.955022 -59.687976 25.957425 4.418076 -42.641408 6.810566 47.192702 0.259150 10.301049 56.996217 -27.938892 -30.490272 27.756886 -58.966810 -27.514170 -3.521157 -37.902324 
0.023773 0.294459 1.030023 179.109792 -1.131695 94.887069 1.905862 5.185100 -8.405257 -2.152994 -3.444943 0.183090 1.266940 12.071757 -9.265270 0.000000 -0.000000 0.000000 -3.520039 -2.079997 -12.998397 1.449843 3.429791 6.643709 5.483171 -6.198086 3.772456 0.000000 -0.000000 0.000000 1.512256 1.772577 19.760637 -1.646552 -8.287654 6.438845 2.116964 4.471533 -6.706928 -6.348012 -5.332706 -9.008277 11.750569 9.200442 -0.942703 -16.021937 -46.295694 -2.785758 -25.404673 -55.011471 -10.001053 37.860065 -28.858882 -59.557482 26.073329 4.695043 -42.710716 7.138885 47.160297 0.589490 10.104363 57.053615 -28.311812 -30.342307 27.653534 -59.035435 -27.640784 -3.757575 -38.332188 
0.023756 0.294530 1.029923 179.165210 -1.124916 94.920965 1.905427 5.213127 -8.490003 -2.160052 -3.449662 0.261278 1.266949 12.031161 -9.326425 0.000000 -0.000000 0.000000 -3.498648 -2.073544 -13.045842 1.419991 3.403109 6.694862 5.409108 -6.192554 3.753548 0.000000 -0.000000 0.000000 1.519728 1.872923 19.797081 -1.548757 -8.218230 6.446741 2.173773 4.401540 -6.822111 -6.302019 -5.299552 -9.013932 11.545976 9.110833 -0.822618 -16.067595 -46.322256 -2.734755 -25.754946 -55.216293 -9.890160 37.690243 -28.392343 -59.373609 26.023109 4.631540 -42.941381 7.183723 47.106619 0.532932 10.316127 57.162203 -28.135560 -30.200069 27.300004 -58.793887 -27.494612 -4.253593 -39.172530 
0.023666 0.294901 1.029971 179.182258 -1.115877 94.838311 1.923813 5.219313 -8.336222 -2.166740 -3.469598 0.173419 1.250733 12.004675 -9.303530 0.000000 -0.000000 0.000000 -3.493861 -2.073859 -12.919075 1.407033 3.333336 6.694383 5.423334 -6.166058 3.704307 0.000000 -0.000000 0.000000 1.521915 1.942519 19.858261 -1.504946 -8.120194 6.559324 2.240663 4.374168 -6.915538 -6.284123 -5.267591 -8.951107 11.514235 9.027227 -0.626433 -15.977917 -46.370292 -2.780223 -26.350191 -55.375000 -9.438694 37.789310 -27.975743 -59.368015 26.400551 4.810512 -42.668991 7.068671 47.127158 0.384497 10.796510 57.255139 -27.899415 -30.222090 26.888790 -59.374563 -26.953404 -3.981458 -39.799730 
0.023609 0.295011 1.029909 179.224378 -1.098386 94.847156 1.945105 5.182331 -8.333677 -2.173297 -3.483128 0.164735 1.226918 11.985060 -9.297531 0.000000 -0.000000 0.000000 -3.496691 -2.040262 -12.852793 1.422640 3.291447 6.590956 5.454538 -6.156579 3.725274 0.000000 -0.000000 0.000000 1.515066 2.080392 19.790644 -1.418443 -8.015983 6.653444 2.285159 4.290227 -6.991448 -6.190110 -5.173711 -8.798832 11.475424 8.916372 -0.492532 -15.982478 -46.357790 -2.674480 -26.645006 -55.781044 -9.439087 37.314987 -27.209611 -59.320307 26.250157 4.435331 -42.675856 7.269189 47.089966 0.438524 10.886642 57.398220 -28.035784 -29.982900 26.356953 -59.443089 -26.324561 -3.684899 -40.150743 
0.023640 0.295017 1.029904 179.278555 -1.093438 94.864642 1.949947 5.214340 -8.335705 -2.173901 -3.562960 0.147714 1.136571 11.984468 -9.302769 0.000000 -0.000000 0.000000 -3.458168 -2.067062 -12.959134 1.381519 3.228418 6.812993 5.417513 -6.111489 3.621872 0.000000 -0.000000 0.000000 1.448572 2.085585 19.765889 -1.358504 -8.041297 6.568169 2.346676 4.341041 -6.921937 -6.227938 -5.211566 -8.571296 11.591588 8.861432 -0.386167 -15.900691 -46.302915 -2.642150 -26.998315 -55.960347 -9.449665 37.154581 -26.700199 -59.300933 26.224908 4.599130 -43.272297 7.421218 47.137166 0.603642 10.995343 57.632145 -28.299103 -29.894012 25.866797 -59.322294 -26.440006 -3.920358 -40.577157 
0.023528 0.295051 1.029988 179.365295 -1.139768 94.949547 1.898096 5.080813 -8.441116 -2.163672 -3.404890 0.177764 1.232737 11.860185 -9.290154 0.000000 -0.000000 0.000000 -3.523330 -2.093281 -12.957909 1.375757 3.136144 6.733004 5.389755 -6.049832 3.615591 0.000000 -0.000000 0.000000 1.437878 2.085877 19.565750 -1.363155 -8.095969 6.739966 2.277907 4.397754 -7.054672 -6.236298 -5.248908 -8.357084 11.749933 8.782550 -0.261237 -15.887480 -46.147767 -2.607150 -27.464241 -56.155518 -9.241722 36.794154 -26.288811 -59.360191 26.356139 4.752526 -43.316226 7.860532 47.157847 1.002899 11.073866 57.919475 -28.675274 -29.939377 25.415458 -60.482208 -26.641945 -3.501843 -39.712327 
0.023513 0.295099 1.029867 179.487778 -1.156833 95.007753 1.888696 4.991025 -8.536062 -2.188688 -3.394516 0.217037 1.333108 11.841763 -9.286565 0.000000 -0.000000 0.000000 -3.546309 -2.116555 -13.102723 1.385060 3.008524 6.952412 5.402639 -6.081169 3.546367 0.000000 -0.000000 0.000000 1.422272 2.091459 19.405660 -1.306263 -8.097597 6.758311 2.238494 4.391143 -6.962776 -6.283346 -5.225426 -8.232668 11.793012 8.872675 -0.136059 -15.821040 -45.874951 -2.570359 -28.233754 -56.534365 -8.858468 36.811957 -26.025834 -59.647515 26.472537 5.610905 -43.578334 7.961562 46.946808 1.079865 11.682694 58.513640 -28.446012 -30.436660 24.847953 -60.796813 -27.501179 -3.973980 -39.036429 
0.023491 0.295067 1.029887 179.580097 -1.168011 95.019744 1.890902 4.929700 -8.600779 -2.200256 -3.258865 0.297732 1.422055 11.668136 -9.314078 0.000000 -0.000000 0.000000 -3.562126 -2.121035 -13.115481 1.346323 2.844947 7.008636 5.432685 -5.971582 3.550719 0.000000 -0.000000 0.000000 1.417668 2.097574 19.340442 -1.264723 -8.096402 6.871095 2.203532 4.334006 -7.036337 -6.219039 -5.177842 -8.002582 11.667872 8.766383 -0.139706 -15.712095 -45.799104 -2.597226 -29.104369 -56.495487 -8.170398 36.966089 -25.699910 -59.893803 26.105063 5.662339 -43.407998 7.916769 46.897795 0.995911 12.489173 58.779042 -27.844127 -30.677014 24.243853 -61.448979 -27.316653 -4.043727 -38.841504 
0.023445 0.295076 1.029882 179.667523 -1.155989 95.070994 1.917047 4.918218 -8.706376 -2.235945 -3.255737 0.390853 1.385748 11.587776 -9.354500 0.000000 -0.000000 0.000000 -3.550931 -2.093439 -13.091199 1.324636 2.798299 6.951527 5.382479 -5.992562 3.514220 0.000000 -0.000000 0.000000 1.445189 2.076673 19.289696 -1.245945 -8.129192 6.869755 2.188070 4.347954 -7.041232 -6.296536 -5.177442 -7.694747 11.715267 8.791639 -0.138537 -15.732487 -45.707015 -2.501634 -29.924647 -56.700545 -7.801303 37.197177 -25.317202 -59.901462 26.136421 5.780051 -43.534381 8.122571 46.788083 1.253931 12.644169 59.162853 -28.118258 -30.754759 23.856594 -61.429563 -27.813541 -4.214277 -38.746179 
